<?xml version="1.0" standalone="no"?>
<!DOCTYPE svg PUBLIC "-//W3C//DTD SVG 20010904//EN"
 "http://www.w3.org/TR/2001/REC-SVG-20010904/DTD/svg10.dtd">
<svg version="1.0" xmlns="http://www.w3.org/2000/svg"
 width="720.000000pt" height="720.000000pt" viewBox="0 0 720.000000 720.000000"
 preserveAspectRatio="xMidYMid meet">
<metadata>
Created by potrace 1.14, written by Peter Selinger 2001-2017
</metadata>
<g transform="translate(0.000000,720.000000) scale(0.100000,-0.100000)"
fill="#000000" stroke="none">
<path d="M3491 7184 c-79 -21 -118 -42 -151 -83 -24 -28 -30 -45 -30 -84 0
-52 35 -136 75 -179 44 -48 102 -144 115 -191 14 -53 8 -201 -10 -222 -6 -7
-38 -13 -78 -14 -37 -1 -77 -3 -88 -5 -11 -2 -45 -7 -75 -10 -30 -3 -63 -8
-74 -10 -11 -2 -40 -7 -65 -11 -73 -11 -291 -64 -353 -85 -31 -11 -63 -20 -70
-20 -14 0 -65 69 -85 115 -18 40 -10 118 24 230 37 123 39 234 6 288 -33 52
-73 71 -157 72 -123 3 -272 -57 -362 -144 -91 -88 -94 -167 -10 -253 23 -24
67 -56 97 -72 139 -73 194 -135 231 -259 11 -38 19 -70 17 -72 -2 -1 -46 -24
-98 -50 -125 -62 -265 -145 -370 -219 -88 -63 -240 -183 -251 -199 -8 -11 -91
32 -132 68 -43 38 -57 79 -72 215 -26 229 -88 318 -213 306 -191 -18 -427
-310 -358 -443 33 -64 96 -97 219 -113 156 -21 203 -39 268 -103 44 -43 89
-100 89 -113 0 -8 -66 -91 -90 -114 -9 -8 -36 -42 -61 -75 -24 -33 -47 -62
-50 -65 -27 -23 -184 -279 -244 -398 l-36 -73 -57 6 c-118 13 -151 42 -265
239 -66 114 -126 167 -195 174 -59 5 -101 -14 -155 -72 -60 -63 -114 -167
-132 -253 -29 -134 -4 -227 70 -263 56 -27 120 -25 235 6 122 33 208 30 291
-10 31 -15 68 -37 82 -49 l26 -22 -25 -70 c-21 -60 -80 -282 -89 -340 -2 -11
-9 -47 -14 -80 -16 -90 -21 -132 -27 -225 -3 -47 -7 -90 -9 -97 -5 -16 -99
-43 -150 -43 -45 0 -120 40 -203 108 -145 117 -239 145 -324 94 -119 -70 -142
-406 -39 -549 69 -95 199 -75 336 50 35 32 103 68 152 81 52 13 149 11 199 -5
28 -8 31 -14 33 -52 2 -61 9 -149 15 -183 2 -16 10 -63 16 -104 6 -41 15 -88
20 -105 5 -16 11 -43 14 -60 7 -46 42 -171 71 -255 l25 -75 -32 -28 c-90 -78
-147 -84 -313 -37 -186 53 -281 44 -341 -35 -86 -113 27 -449 177 -526 53 -26
85 -27 134 -1 54 27 84 61 143 162 28 47 61 97 74 111 35 40 97 76 159 94 100
28 93 31 133 -48 58 -115 87 -166 149 -261 53 -80 186 -261 219 -298 7 -8 28
-30 46 -50 l34 -36 -18 -33 c-39 -78 -99 -133 -154 -144 -36 -7 -87 -14 -140
-20 -159 -17 -239 -55 -279 -132 -61 -118 120 -371 310 -435 141 -48 223 39
244 256 10 106 38 169 104 235 32 31 71 64 87 73 29 16 31 16 60 -9 16 -14 46
-39 68 -56 21 -18 43 -37 50 -42 67 -61 292 -204 431 -275 l126 -65 -5 -53
c-8 -78 -16 -104 -43 -140 -22 -29 -114 -96 -152 -110 -26 -9 -146 -90 -163
-109 -31 -35 -58 -94 -58 -126 1 -129 198 -267 406 -284 174 -14 240 93 183
297 -49 176 -38 258 51 391 l24 37 56 -20 c61 -21 258 -74 305 -83 17 -2 41
-7 55 -10 14 -3 45 -8 70 -11 25 -3 52 -7 60 -9 26 -7 185 -22 257 -24 30 -1
33 -5 48 -53 8 -28 15 -75 15 -103 0 -55 -25 -105 -100 -195 -91 -111 -129
-192 -124 -265 8 -109 143 -177 339 -170 138 4 234 42 276 107 17 27 19 43 15
90 -6 62 -26 100 -101 198 -45 57 -84 128 -90 162 -12 61 -1 213 16 223 4 3
28 8 51 10 67 7 139 15 183 21 22 4 49 7 60 9 131 17 478 111 537 145 14 8 25
0 57 -43 67 -89 68 -123 12 -332 -46 -169 -27 -266 63 -312 32 -16 118 -22
181 -11 130 22 283 117 327 201 35 68 22 125 -45 197 -24 26 -32 31 -132 87
-114 65 -170 139 -198 262 l-15 62 27 10 c49 19 368 213 391 239 3 3 37 30 75
60 39 29 81 64 95 76 14 13 38 35 53 49 15 14 31 25 36 25 15 0 123 -70 141
-92 23 -28 46 -103 54 -178 13 -121 18 -147 39 -200 36 -93 84 -132 163 -132
71 0 212 84 274 163 14 18 30 38 36 44 7 6 24 36 40 66 21 41 28 69 28 115 1
57 -1 63 -34 95 -52 52 -109 72 -235 84 -108 10 -172 40 -239 109 -53 55 -92
116 -80 124 13 9 150 183 199 252 58 83 157 248 195 328 l35 72 40 -6 c22 -3
53 -7 68 -9 73 -11 120 -57 192 -190 105 -194 200 -253 313 -196 110 56 218
282 207 432 -11 141 -111 184 -311 132 -144 -37 -206 -35 -297 10 -117 60
-112 50 -78 153 25 74 75 258 86 314 22 110 43 269 50 372 2 26 6 51 9 57 9
14 138 41 170 35 44 -8 93 -36 194 -113 140 -107 203 -129 284 -102 47 16 80
55 109 128 30 79 33 261 5 343 -35 103 -89 154 -159 152 -67 -3 -100 -19 -208
-98 -122 -89 -177 -109 -282 -100 -106 8 -117 13 -118 50 -1 17 -2 42 -4 56
-10 99 -17 164 -20 178 -1 9 -6 42 -10 72 -3 30 -11 71 -15 90 -5 19 -11 46
-14 60 -10 57 -48 195 -75 271 -29 81 -29 81 -9 98 11 9 26 21 32 27 7 6 33
23 60 37 58 31 91 29 250 -13 136 -36 157 -39 218 -29 57 9 102 39 124 80 64
125 -39 417 -178 505 -42 27 -108 34 -131 15 -8 -6 -16 -9 -19 -6 -11 11 -89
-80 -132 -155 -26 -45 -63 -99 -83 -121 -38 -42 -136 -94 -195 -103 -21 -3
-43 -7 -50 -8 -7 -2 -22 15 -33 37 -95 187 -210 365 -340 527 l-86 107 30 54
c42 73 77 103 141 120 50 14 133 28 170 29 39 1 147 31 177 49 94 58 110 139
53 256 -63 127 -248 273 -346 273 -97 0 -161 -78 -179 -220 -3 -25 -8 -56 -10
-70 -3 -14 -7 -41 -10 -60 -13 -77 -93 -179 -182 -232 -29 -17 -29 -16 -73 26
-67 63 -172 144 -295 228 -106 72 -145 96 -285 172 l-65 35 3 43 c7 104 51
170 141 215 198 99 287 195 270 292 -15 79 -84 146 -214 206 -38 18 -92 37
-119 43 -60 13 -162 9 -196 -7 -35 -17 -69 -70 -76 -120 -6 -42 11 -161 27
-193 9 -17 20 -79 23 -133 4 -58 -52 -204 -89 -235 -8 -7 -41 0 -101 21 -80
27 -280 81 -344 92 -177 33 -270 44 -357 46 l-42 1 -17 58 c-34 115 -19 164
92 301 177 219 153 364 -71 416 -71 16 -199 16 -264 -1z"/>
</g>
</svg>
